<svg xmlns="http://www.w3.org/2000/svg" viewBox="0 0 512 512" width="512" height="512">
  <!-- macOS rounded-rect background -->
  <rect x="12" y="12" width="488" height="488" rx="110" ry="110" fill="white"/>
  <rect x="12" y="12" width="488" height="488" rx="110" ry="110" fill="none" stroke="#E0E0E0" stroke-width="1"/>

  <!-- Icon centered inside, scaled larger to fill the space -->
  <g fill="none" stroke="#1a1a1a" stroke-width="7" stroke-linecap="round" stroke-linejoin="round"
     transform="translate(56,56) scale(4)">
    <circle cx="50" cy="50" r="14" />

    <path d="M 20 54
             L 20 62
             A 18 18 0 0 0 38 80
             L 62 80
             A 18 18 0 0 0 80 62
             L 88 54
             M 76 54
             L 88 54
             L 88 66" />

    <path d="M 80 46
             L 80 38
             A 18 18 0 0 0 62 20
             L 38 20
             A 18 18 0 0 0 20 38
             L 12 46
             M 24 46
             L 12 46
             L 12 34" />
  </g>
</svg>
