<svg xmlns="http://www.w3.org/2000/svg" viewBox="0 0 100 100" width="100" height="100">
  <g fill="none" stroke="black" stroke-width="10" stroke-linecap="round" stroke-linejoin="round">
    <!-- Center circle (lens) - filled for visibility at small size -->
    <circle cx="50" cy="50" r="14" fill="black" stroke="none"/>

    <!-- Bottom-right arrow -->
    <path d="M 20 54
             L 20 62
             A 18 18 0 0 0 38 80
             L 62 80
             A 18 18 0 0 0 80 62
             L 88 54
             M 76 54
             L 88 54
             L 88 66" />

    <!-- Top-left arrow -->
    <path d="M 80 46
             L 80 38
             A 18 18 0 0 0 62 20
             L 38 20
             A 18 18 0 0 0 20 38
             L 12 46
             M 24 46
             L 12 46
             L 12 34" />
  </g>
</svg>
